<?xml version="1.0" encoding="UTF-8" standalone="no"?>
<!DOCTYPE svg PUBLIC "-//W3C//DTD SVG 1.1//EN" "http://www.w3.org/Graphics/SVG/1.1/DTD/svg11.dtd">
<!-- Generated by Microsoft Visio, SVG Export deep-doze.svg Page-1 -->
<svg xmlns="http://www.w3.org/2000/svg" xmlns:xlink="http://www.w3.org/1999/xlink" xmlns:ev="http://www.w3.org/2001/xml-events"
		width="8.58383in" height="7.44194in" viewBox="0 0 618.035 535.819" xml:space="preserve" color-interpolation-filters="sRGB"
		class="st30">
	<style type="text/css">
	<![CDATA[
		.st1 {fill:url(#grad0-5);stroke:#4f87bb;stroke-width:0.75}
		.st2 {fill:#4f87bb;font-family:Calibri;font-size:0.666664em;font-weight:bold}
		.st3 {fill:#ffffff}
		.st4 {stroke:#ed7d31;stroke-width:0.75}
		.st5 {fill:#ed7d31;font-family:Calibri;font-size:0.499992em;font-style:italic}
		.st6 {fill:#ffffff;stroke:#ed7d31;stroke-width:0.75}
		.st7 {fill:#ed7d31;font-family:Calibri;font-size:0.666664em;font-weight:bold}
		.st8 {visibility:visible}
		.st9 {marker-end:url(#mrkr12-88);stroke:#5b9bd5;stroke-linecap:round;stroke-linejoin:round;stroke-width:1}
		.st10 {fill:#5b9bd5;fill-opacity:1;stroke:#5b9bd5;stroke-opacity:1;stroke-width:0.28409090909091}
		.st11 {fill:#5b9bd5;fill-opacity:0.22;filter:url(#filter_2);stroke:#5b9bd5;stroke-opacity:0.22}
		.st12 {fill:#000000;stroke:#c7c8c8;stroke-width:0.25}
		.st13 {fill:url(#grad0-5);visibility:hidden}
		.st14 {stroke:#4f87bb;stroke-width:0.75}
		.st15 {fill:#e9eff7;fill-opacity:1;stroke:#e9eff7;stroke-opacity:1;stroke-width:0.22935779816514}
		.st16 {fill:#ffffff;stroke:none;stroke-linecap:butt;stroke-width:7.2}
		.st17 {fill:#4f87bb;font-family:Calibri;font-size:0.666664em;font-style:italic}
		.st18 {font-size:1em;font-style:normal}
		.st19 {font-size:1em}
		.st20 {fill:#70ad47;font-size:1em;font-weight:bold}
		.st21 {fill:#70ad47;font-family:Calibri;font-size:0.666664em;font-style:italic;font-weight:bold}
		.st22 {fill:#4f87bb;font-size:1em;font-weight:normal}
		.st23 {fill:#4f87bb;font-size:1em;font-style:normal;font-weight:normal}
		.st24 {fill:#7030a0;font-size:1em}
		.st25 {font-size:1em;font-weight:bold}
		.st26 {fill:#7030a0;font-size:1em;font-weight:bold}
		.st27 {fill:#4f87bb;font-family:Calibri;font-size:0.666664em;font-style:italic;font-weight:bold}
		.st28 {font-size:1em;font-weight:normal}
		.st29 {font-size:1em;font-style:normal;font-weight:normal}
		.st30 {fill:none;fill-rule:evenodd;font-size:12px;overflow:visible;stroke-linecap:square;stroke-miterlimit:3}
	]]>
	</style>

	<defs id="Patterns_And_Gradients">
		<linearGradient id="grad0-5" x1="0" y1="0" x2="1" y2="0" gradientTransform="rotate(60 0.5 0.5)">
			<stop offset="0" stop-color="#e9eff7" stop-opacity="1"/>
			<stop offset="0.24" stop-color="#f4f7fb" stop-opacity="1"/>
			<stop offset="0.54" stop-color="#feffff" stop-opacity="1"/>
		</linearGradient>
	</defs>
	<defs id="Markers">
		<g id="lend12">
			<path d="M 3 1 L 0 0 L 3 -1 " style="stroke-linecap:round;stroke-linejoin:round;fill:none"/>
		</g>
		<marker id="mrkr12-88" class="st10" orient="auto" markerUnits="strokeWidth" overflow="visible">
			<use xlink:href="#lend12" transform="scale(-3.52,-3.52) "/>
		</marker>
		<marker id="mrkr12-123" class="st15" orient="auto" markerUnits="strokeWidth" overflow="visible">
			<use xlink:href="#lend12" transform="scale(-4.36,-4.36) "/>
		</marker>
	</defs>
	<defs id="Filters">
		<filter id="filter_2">
			<feGaussianBlur stdDeviation="2"/>
		</filter>
	</defs>
	<g>
		<title>Page-1</title>
		<g id="group9-1" transform="translate(30.5138,651.302) scale(1,-1)">
			<title>State, Act.Region.158</title>
			<g id="shape10-2" transform="translate(0,-367.157)">
				<title>Sheet.10</title>
			</g>
			<g id="shape11-6" transform="translate(0,-367.157)">
				<title>Sheet.11</title>
			</g>
			<g id="shape12-9">
				<title>Sheet.12</title>
				<path d="M-0 517.82 A18 18 -180 0 0 18 535.82 L540.43 535.82 A18 18 -180 0 0 558.43 517.82 L558.43 186.66 A18 18
							 -180 0 0 540.43 168.66 L18 168.66 A18 18 -180 0 0 -0 186.66 L0 517.82 Z" class="st1"/>
			</g>
		</g>
		<g id="group20-12" transform="translate(213.67,671.258) scale(1,-1)">
			<title>State, Act.Region.9</title>
			<g id="shape21-13" transform="translate(0,-36)">
				<title>Sheet.21</title>
			</g>
			<g id="shape22-16" transform="translate(0,-36)">
				<title>Sheet.22</title>
			</g>
			<g id="shape23-19">
				<title>Sheet.23</title>
				<desc>INACTIVE</desc>
				<path d="M-0 526.82 A9 9 -180 0 0 9 535.82 L63 535.82 A9 9 -180 0 0 72 526.82 L72 508.82 A9 9 -180 0 0 63 499.82
							 L9 499.82 A9 9 -180 0 0 -0 508.82 L0 526.82 Z" class="st1"/>
				<text x="20.39" y="-515.42" transform="scale(1,-1)" class="st2">INACTIVE</text>			</g>
		</g>
		<g id="group24-23" transform="translate(213.67,731.538) scale(1,-1)">
			<title>State, Act.Region.13</title>
			<g id="shape25-24" transform="translate(0,-36)">
				<title>Sheet.25</title>
			</g>
			<g id="shape26-27" transform="translate(0,-36)">
				<title>Sheet.26</title>
			</g>
			<g id="shape27-30">
				<title>Sheet.27</title>
				<desc>IDLE_PENDING</desc>
				<path d="M-0 526.82 A9 9 -180 0 0 9 535.82 L63 535.82 A9 9 -180 0 0 72 526.82 L72 508.82 A9 9 -180 0 0 63 499.82
							 L9 499.82 A9 9 -180 0 0 -0 508.82 L0 526.82 Z" class="st1"/>
				<text x="11.29" y="-515.42" transform="scale(1,-1)" class="st2">IDLE_PENDING</text>			</g>
		</g>
		<g id="group28-34" transform="translate(213.67,792.058) scale(1,-1)">
			<title>State, Act.Region.17</title>
			<g id="shape29-35" transform="translate(0,-32.5858)">
				<title>Sheet.29</title>
			</g>
			<g id="shape30-38" transform="translate(0,-32.5858)">
				<title>Sheet.30</title>
			</g>
			<g id="shape31-41">
				<title>Sheet.31</title>
				<desc>SENSING</desc>
				<path d="M0 527.67 A8.14644 8.14644 -180 0 0 8.15 535.82 L63.85 535.82 A8.14644 8.14644 -180 0 0 72 527.67 L72 511.38
							 A8.14644 8.14644 -180 0 0 63.85 503.23 L8.15 503.23 A8.14644 8.14644 -180 0 0 0 511.38 L0 527.67 Z"
						class="st1"/>
				<text x="21.38" y="-517.13" transform="scale(1,-1)" class="st2">SENSING</text>			</g>
		</g>
		<g id="group32-45" transform="translate(213.67,854.42) scale(1,-1)">
			<title>State, Act.Region.21</title>
			<g id="shape33-46" transform="translate(0,-36)">
				<title>Sheet.33</title>
			</g>
			<g id="shape34-49" transform="translate(0,-36)">
				<title>Sheet.34</title>
			</g>
			<g id="shape35-52">
				<title>Sheet.35</title>
				<desc>LOCATING</desc>
				<path d="M-0 526.82 A9 9 -180 0 0 9 535.82 L63 535.82 A9 9 -180 0 0 72 526.82 L72 508.82 A9 9 -180 0 0 63 499.82
							 L9 499.82 A9 9 -180 0 0 -0 508.82 L0 526.82 Z" class="st1"/>
				<text x="18.83" y="-515.42" transform="scale(1,-1)" class="st2">LOCATING</text>			</g>
		</g>
		<g id="group36-56" transform="translate(209.489,921.446) scale(1,-1)">
			<title>State, Act.Region.25</title>
			<g id="shape37-57" transform="translate(0,-36)">
				<title>Sheet.37</title>
			</g>
			<g id="shape38-59" transform="translate(0,-14.1732)">
				<title>Sheet.38</title>
				<desc>do/ override_light_doze</desc>
				<path d="M0 535.82 L80.36 535.82 L80.36 522.99 A9 9 -180 0 0 71.36 513.99 L9 513.99 A9 9 -180 0 0 -0 522.99 L0 535.82
							 Z" class="st3"/>
				<path d="M80.36 535.82 L80.36 522.99 A9 9 -180 0 0 71.36 513.99 L9 513.99 A9 9 -180 0 0 -0 522.99 L0 535.82"
						class="st4"/>
				<text x="4" y="-526.42" transform="scale(1,-1)" class="st5">do/ override_light_doze</text>			</g>
			<g id="shape39-63">
				<title>Sheet.39</title>
				<desc>IDLE</desc>
				<path d="M-0 526.82 A9 9 -180 0 0 9 535.82 L71.36 535.82 A9 9 -180 0 0 80.36 526.82 L80.36 521.65 L0 521.65 L0 526.82
							 Z" class="st6"/>
				<text x="32.95" y="-526.33" transform="scale(1,-1)" class="st7">IDLE</text>			</g>
		</g>
		<g id="group40-66" transform="translate(489.726,921.446) scale(1,-1)">
			<title>State, Act.Region.29</title>
			<g id="shape41-67" transform="translate(0,-36)">
				<title>Sheet.41</title>
			</g>
			<g id="shape42-70" transform="translate(0,-36)">
				<title>Sheet.42</title>
			</g>
			<g id="shape43-73">
				<title>Sheet.43</title>
				<desc>IDLE_MAINTENANCE</desc>
				<path d="M-0 526.82 A9 9 -180 0 0 9 535.82 L71.36 535.82 A9 9 -180 0 0 80.36 526.82 L80.36 508.82 A9 9 -180 0 0 71.36
							 499.82 L9 499.82 A9 9 -180 0 0 -0 508.82 L0 526.82 Z" class="st1"/>
				<text x="5.64" y="-515.42" transform="scale(1,-1)" class="st2">IDLE_MAINTENANCE</text>			</g>
		</g>
		<g id="group76-77" transform="translate(240.968,-509.501)">
			<title>Pseudo- state.83</title>
			<g id="shape77-78">
				<title>Sheet.77</title>
				<g id="shadow77-79" transform="matrix(1,0,0,1,0.345598,1.97279)" class="st8"/>
			</g>
			<g id="shape78-83" transform="translate(389.759,903.824) rotate(135)">
				<title>Sheet.78</title>
				<path d="M6.92 531.97 L23.12 515.78" class="st9"/>
			</g>
			<g id="shape79-89" transform="translate(3.2632,-3.2632)">
				<title>Sheet.79</title>
				<desc>H</desc>
				<g id="shadow79-90" transform="matrix(1,0,0,1,0.345598,1.97279)" class="st8">
					<path d="M0 530.38 A5.43866 5.43866 0 1 1 10.88 530.38 A5.43866 5.43866 0 0 1 0 530.38 Z" class="st11"/>
				</g>
				<path d="M0 530.38 A5.43866 5.43866 0 1 1 10.88 530.38 A5.43866 5.43866 0 0 1 0 530.38 Z" class="st12"/>
			</g>
		</g>
		<g id="group91-94" transform="translate(0.75,-17.8018)">
			<title>Diagram, Frame.102</title>
			<g id="shape92-95">
				<title>Sheet.92</title>
				<rect x="0" y="18.5518" width="616.535" height="517.268" class="st13"/>
				<rect x="0" y="18.5518" width="616.535" height="517.268" class="st14"/>
			</g>
			<g id="shape93-99">
				<title>Sheet.93</title>
				<desc>[guard]</desc>
			</g>
			<g id="shape94-101">
				<title>Sheet.94</title>
				<desc>[guard]</desc>
			</g>
			<g id="shape95-103">
				<title>Sheet.95</title>
				<desc>[guard]</desc>
			</g>
			<g id="shape96-105">
				<title>Sheet.96</title>
				<desc>[guard]</desc>
			</g>
			<g id="shape97-107">
				<title>Sheet.97</title>
				<desc>[guard]</desc>
			</g>
			<g id="shape98-109">
				<title>Sheet.98</title>
				<desc>[guard]</desc>
			</g>
			<g id="shape99-111">
				<title>Sheet.99</title>
				<desc>[guard]</desc>
			</g>
			<g id="shape100-113">
				<title>Sheet.100</title>
				<desc>[guard]</desc>
			</g>
			<g id="shape101-115" transform="translate(0,-499.268)">
				<title>Sheet.101</title>
				<desc>(Deep) Doze</desc>
				<path d="M0 535.82 L48.22 535.82 L57.22 526.82 L57.22 517.82 L0 517.82 L0 535.82 Z" class="st1"/>
				<text x="8.24" y="529.22" class="st2">(Deep) Doze</text>			</g>
		</g>
		<g id="group102-119" transform="translate(242.583,-453.857)">
			<title>Transition, Edge</title>
			<desc>screen off &#38;&#38; charger unplugged</desc>
			<g id="shape103-120" transform="translate(535.401,593.496) rotate(90.4556)">
				<title>Straight Edge.28</title>
				<desc>N</desc>
			</g>
			<g id="shape104-124" transform="translate(535.52,525.044) rotate(90.4556)">
				<title>Straight Edge.29</title>
				<desc>N</desc>
			</g>
			<g id="shape102-127">
				<path d="M7.09 535.82 L7.09 589.3" class="st9"/>
				<rect x="-59.489" y="544.577" width="61.2301" height="19.1997" class="st16"/>
				<text x="-42.72" y="551.78" class="st17">screen off<tspan class="st18"> </tspan><tspan class="st18">&#38;&#38; </tspan><tspan
							x="-59.49" dy="1.2em" class="st19">charger unplugged</tspan></text>			</g>
		</g>
		<g id="group111-137" transform="translate(345.726,-420.337)">
			<title>Transition, Edge.125</title>
			<desc>screen on || charger plugged || next FLAG_WAKE_FROM_IDLE alar...</desc>
			<g id="shape112-138" transform="translate(-390.634,896.431) rotate(-141.266)">
				<title>Straight Edge.28</title>
				<desc>N</desc>
			</g>
			<g id="shape113-141" transform="translate(-528.331,550.796) rotate(-90)">
				<title>Straight Edge.29</title>
				<desc>N</desc>
			</g>
			<g id="shape111-144">
				<path d="M0 535.82 L0 502.3 A18 18 -180 0 0 -18 484.3 L-60.06 484.3" class="st9"/>
				<text x="98.45" y="505.6" class="st17">screen on <tspan class="st18">|| </tspan><tspan x="76.42" dy="1.2em"
							class="st19">charger plugged </tspan><tspan class="st18">|| </tspan><tspan x="-58.55" dy="1.2em"
							class="st19">next </tspan>FLAG_WAKE_FROM_IDLE alarm  &#60;  <tspan class="st20">min</tspan><tspan
							class="st20">_</tspan><tspan class="st20">time</tspan><tspan class="st20">_</tspan><tspan class="st20">to</tspan><tspan
							class="st20">_</tspan><tspan class="st20">alarm</tspan></text>			</g>
		</g>
		<g id="group135-161" transform="translate(242.583,-364.381)">
			<title>Transition, Edge.162</title>
			<desc>inactive_to timeout || motion_inactive_to timeout</desc>
			<g id="shape136-162" transform="translate(535.418,560.1) rotate(90)">
				<title>Straight Edge.28</title>
				<desc>N</desc>
			</g>
			<g id="shape137-165" transform="translate(535.418,520.843) rotate(90)">
				<title>Straight Edge.29</title>
				<desc>N</desc>
			</g>
			<g id="shape135-168">
				<path d="M7.09 535.82 L7.09 560.1" class="st9"/>
				<rect x="-92.3257" y="537.954" width="92.2775" height="19.1997" class="st16"/>
				<text x="-73.69" y="545.15" class="st21">inactive_to<tspan class="st22"> </tspan><tspan class="st22">timeout </tspan><tspan
							class="st23">||</tspan><tspan x="-92.33" dy="1.2em" class="st19">motion</tspan>_inactive_to<tspan
							class="st22"> </tspan><tspan class="st22">timeout</tspan></text>			</g>
		</g>
		<g id="group138-181" transform="translate(242.583,-304.101)">
			<title>Transition, Edge.165</title>
			<desc>idle_after_inactive_to timeout</desc>
			<g id="shape139-182" transform="translate(535.418,560.339) rotate(90)">
				<title>Straight Edge.28</title>
				<desc>N</desc>
			</g>
			<g id="shape140-185" transform="translate(535.418,520.843) rotate(90)">
				<title>Straight Edge.29</title>
				<desc>N</desc>
			</g>
			<g id="shape138-188">
				<path d="M7.09 535.82 L7.09 560.34" class="st9"/>
				<rect x="-100.891" y="540.996" width="100.793" height="9.59985" class="st16"/>
				<text x="-100.89" y="548.2" class="st21">idle_after_inactive_to<tspan class="st22"> </tspan><tspan class="st22">timeout</tspan></text>			</g>
		</g>
		<g id="group141-197" transform="translate(242.583,-246.996)">
			<title>Transition, Edge.168</title>
			<desc>locating service available (i.e. network or GPS)</desc>
			<g id="shape142-198" transform="translate(535.418,565.596) rotate(90)">
				<title>Straight Edge.28</title>
				<desc>N</desc>
			</g>
			<g id="shape143-201" transform="translate(535.418,520.843) rotate(90)">
				<title>Straight Edge.29</title>
				<desc>N</desc>
			</g>
			<g id="shape141-204">
				<path d="M7.09 535.82 L7.09 565.6" class="st9"/>
				<rect x="10.7901" y="543.418" width="149.557" height="9.59985" class="st16"/>
				<text x="10.79" y="550.62" class="st17">locating service available (i.e. network or GPS)</text>			</g>
		</g>
		<g id="group144-211" transform="translate(242.583,-181.219)">
			<title>Transition, Edge.171</title>
			<desc>locating_to timeout || stationary with accuracy &#60; location_ac...</desc>
			<g id="shape145-212" transform="translate(535.418,566.846) rotate(90)">
				<title>Straight Edge.28</title>
				<desc>N</desc>
			</g>
			<g id="shape146-215" transform="translate(535.418,520.843) rotate(90)">
				<title>Straight Edge.29</title>
				<desc>N</desc>
			</g>
			<g id="shape144-218">
				<path d="M7.09 535.82 L7.09 566.85" class="st9"/>
				<rect x="-144.481" y="540.873" width="147.265" height="19.1997" class="st16"/>
				<text x="-71.62" y="548.07" class="st21">locating_to<tspan class="st22"> </tspan><tspan class="st22">timeout </tspan><tspan
							class="st23">|| </tspan><tspan x="-144.48" dy="1.2em" class="st22">stationary</tspan><tspan
							class="st22"> </tspan><tspan class="st22">with accuracy </tspan><tspan class="st22">&#60; </tspan><tspan
							class="st24">location</tspan><tspan class="st24">_</tspan><tspan class="st24">accuracy</tspan></text>			</g>
		</g>
		<g id="group147-235" transform="translate(489.726,-125.106)">
			<title>Transition, Edge.174</title>
			<desc>max( min_deep_maintenance_time, min( idle_pending_to *= idle_...</desc>
			<g id="shape148-236" transform="translate(-199.875,1057.06) rotate(180)">
				<title>Straight Edge.28</title>
				<desc>N</desc>
			</g>
			<g id="shape149-239" transform="translate(14.9763,1057.06) rotate(180)">
				<title>Straight Edge.29</title>
				<desc>N</desc>
			</g>
			<g id="shape147-242">
				<path d="M0 528.73 L-199.88 528.73" class="st9"/>
				<rect x="-170.994" y="496.968" width="151.044" height="28.7996" class="st16"/>
				<text x="-139.48" y="504.17" class="st17">max( <tspan class="st20">min</tspan><tspan class="st20">_</tspan><tspan
							class="st20">deep</tspan><tspan class="st20">_</tspan><tspan class="st20">maintenance</tspan><tspan
							class="st20">_</tspan><tspan class="st20">time</tspan>, <tspan x="-170.99" dy="1.2em" class="st19">min</tspan>( <tspan
							class="st20">idle</tspan><tspan class="st20">_</tspan><tspan class="st20">pending</tspan><tspan
							class="st20">_</tspan><tspan class="st20">to</tspan> *= <tspan class="st20">idle</tspan><tspan
							class="st20">_</tspan><tspan class="st20">pending</tspan><tspan class="st20">_</tspan><tspan
							class="st20">factor</tspan>,<tspan x="-129.95" dy="1.2em" class="st19"> </tspan><tspan class="st20">max</tspan><tspan
							class="st20">_</tspan><tspan class="st20">idle</tspan><tspan class="st20">_</tspan><tspan class="st20">pending</tspan><tspan
							class="st20">_</tspan><tspan class="st20">to</tspan> ) ) timeout</text>			</g>
		</g>
		<g id="group153-275" transform="translate(249.67,-107.106)">
			<title>Transition, Edge.187</title>
			<desc>min( Idle_to *= idle_factor, max_idle_to ) timeout</desc>
			<g id="shape154-276" transform="translate(211.107,4.94383) rotate(-7.51852)">
				<title>Straight Edge.28</title>
				<desc>N</desc>
			</g>
			<g id="shape155-279" transform="translate(54.2828,2.98422) rotate(7.51852)">
				<title>Straight Edge.29</title>
				<desc>N</desc>
			</g>
			<g id="shape153-282">
				<path d="M0 528.73 L0 537.98 A9.24654 9.24654 -180 0 0 9.25 547.23 L270.99 547.23 A9.24654 9.24654 -180 0 0 280.24
							 537.98 L280.24 528.73" class="st9"/>
				<rect x="61.2059" y="551.497" width="165.836" height="9.59985" class="st16"/>
				<text x="61.21" y="558.7" class="st17">min(<tspan class="st25"> </tspan><tspan class="st26">Idle</tspan><tspan
							class="st26">_</tspan><tspan class="st26">to</tspan><tspan class="st25"> </tspan>*= <tspan class="st26">idle</tspan><tspan
							class="st26">_</tspan><tspan class="st26">factor</tspan>,<tspan class="st25"> </tspan><tspan
							class="st26">max</tspan><tspan class="st26">_</tspan><tspan class="st26">idle</tspan><tspan
							class="st26">_</tspan><tspan class="st26">to</tspan> )  timeout</text>			</g>
		</g>
		<g id="group156-303" transform="translate(543.726,-420.337)">
			<title>Transition, Edge.190</title>
			<desc>motion detected</desc>
			<g id="shape157-304" transform="translate(-369.458,987.511) rotate(-167.961)">
				<title>Straight Edge.28</title>
				<desc>N</desc>
			</g>
			<g id="shape158-307" transform="translate(-528.331,550.796) rotate(-90)">
				<title>Straight Edge.29</title>
				<desc>N</desc>
			</g>
			<g id="shape156-310">
				<path d="M0 535.82 L0 488.8 A18 18 -180 0 0 -18 470.8 L-259.26 470.8" class="st9"/>
				<rect x="-116.108" y="458.395" width="53.3504" height="9.59985" class="st16"/>
				<text x="-116.11" y="465.59" class="st17">motion detected</text>			</g>
		</g>
		<g id="group164-317" transform="translate(218.666,-263.288)">
			<title>Transition, Edge.214</title>
			<desc>locating service not available</desc>
			<g id="shape165-318" transform="translate(517.964,631.475) rotate(86.1537)">
				<title>Straight Edge.28</title>
				<desc>N</desc>
			</g>
			<g id="shape166-321" transform="translate(9.98028,1064.15) rotate(180)">
				<title>Straight Edge.29</title>
				<desc>N</desc>
			</g>
			<g id="shape164-324">
				<path d="M-5 535.82 L-140.12 535.82 A18 18 -180 0 0 -158.12 553.82 L-158.12 648.92 A18 18 -180 0 0 -140.12 666.92
							 L-9.18 666.92" class="st9"/>
				<rect x="-150.124" y="576.719" width="94.0218" height="9.59985" class="st16"/>
				<text x="-150.12" y="583.92" class="st17">locating service not available</text>			</g>
		</g>
		<g id="group170-331" transform="translate(278.583,-263.288)">
			<title>Transition, Edge.170</title>
			<desc>sensing_to timeout &#38;&#38; motion detected &#38;&#38; screen off &#38;&#38; charge...</desc>
			<g id="shape171-332" transform="translate(-520.612,442.572) rotate(-92.804)">
				<title>Straight Edge.28</title>
				<desc>N</desc>
			</g>
			<g id="shape172-335" transform="translate(-7.88973,7.48817)">
				<title>Straight Edge.29</title>
				<desc>N</desc>
			</g>
			<g id="shape170-338">
				<path d="M7.09 535.82 L26.75 535.82 A18 18 -180 0 0 44.75 517.82 L44.75 434.73 A18 18 -180 0 0 26.75 416.73 L7.09
							 416.73" class="st9"/>
				<rect x="52.5874" y="454.96" width="75.929" height="38.3997" class="st16"/>
				<text x="52.59" y="462.16" class="st27">sensing_to<tspan class="st28"> </tspan><tspan class="st28">timeout </tspan><tspan
							class="st29">&#38;&#38; </tspan><tspan x="62.44" dy="1.2em" class="st28">motion detected </tspan><tspan
							class="st28">&#38;&#38; </tspan><tspan x="84.06" dy="1.2em" class="st28">screen off</tspan><tspan
							class="st29"> </tspan><tspan class="st29">&#38;&#38; </tspan><tspan x="67.29" dy="1.2em" class="st28">charger unplugged</tspan></text>			</g>
		</g>
		<g id="group16-354" transform="translate(213.67,581.782) scale(1,-1)">
			<title>State, Act.Region.5</title>
			<g id="shape17-355" transform="translate(0,-36)">
				<title>Sheet.17</title>
			</g>
			<g id="shape18-358" transform="translate(0,-36)">
				<title>Sheet.18</title>
			</g>
			<g id="shape19-361">
				<title>Sheet.19</title>
				<desc>ACTIVE</desc>
				<path d="M-0 526.82 A9 9 -180 0 0 9 535.82 L63 535.82 A9 9 -180 0 0 72 526.82 L72 508.82 A9 9 -180 0 0 63 499.82
							 L9 499.82 A9 9 -180 0 0 -0 508.82 L0 526.82 Z" class="st1"/>
				<text x="24.1" y="-515.42" transform="scale(1,-1)" class="st2">ACTIVE</text>			</g>
		</g>
	</g>
</svg>
