<?xml version="1.0" encoding="UTF-8" standalone="no"?>
<!DOCTYPE svg PUBLIC "-//W3C//DTD SVG 1.1//EN" "http://www.w3.org/Graphics/SVG/1.1/DTD/svg11.dtd">
<!-- Generated by Microsoft Visio, SVG Export doze.svg Page-1 -->
<svg xmlns="http://www.w3.org/2000/svg" xmlns:xlink="http://www.w3.org/1999/xlink" xmlns:ev="http://www.w3.org/2001/xml-events"
		width="11.3737in" height="7.44194in" viewBox="0 0 818.903 535.819" xml:space="preserve" color-interpolation-filters="sRGB"
		class="st30">
	<style type="text/css">
	<![CDATA[
		.st1 {fill:url(#grad0-5);stroke:#4f87bb;stroke-width:0.75}
		.st2 {fill:url(#grad0-5)}
		.st3 {stroke:#4f87bb;stroke-width:0.75}
		.st4 {fill:#4f87bb;font-family:Calibri;font-size:0.666664em;font-weight:bold}
		.st5 {fill:url(#grad0-60);stroke:#d06d29;stroke-width:0.75}
		.st6 {fill:#d06d29;font-family:Calibri;font-size:0.666664em;font-weight:bold}
		.st7 {fill:#ffffff;stroke:#ed7d31;stroke-width:0.75}
		.st8 {fill:#ed7d31;font-family:Calibri;font-size:0.666664em;font-weight:bold}
		.st9 {visibility:visible}
		.st10 {marker-end:url(#mrkr12-109);stroke:#5b9bd5;stroke-linecap:round;stroke-linejoin:round;stroke-width:1}
		.st11 {fill:#5b9bd5;fill-opacity:1;stroke:#5b9bd5;stroke-opacity:1;stroke-width:0.28409090909091}
		.st12 {fill:#5b9bd5;fill-opacity:0.22;filter:url(#filter_2);stroke:#5b9bd5;stroke-opacity:0.22}
		.st13 {fill:#000000;stroke:#c7c8c8;stroke-width:0.25}
		.st14 {fill:url(#grad0-5);visibility:hidden}
		.st15 {fill:#e9eff7;fill-opacity:1;stroke:#e9eff7;stroke-opacity:1;stroke-width:0.22935779816514}
		.st16 {fill:#ffffff;stroke:none;stroke-linecap:butt;stroke-width:7.2}
		.st17 {fill:#4f87bb;font-family:Calibri;font-size:0.666664em;font-style:italic}
		.st18 {font-size:1em}
		.st19 {font-size:1em;font-style:normal}
		.st20 {fill:#70ad47;font-size:1em;font-weight:bold}
		.st21 {fill:#70ad47;font-family:Calibri;font-size:0.666664em;font-style:italic;font-weight:bold}
		.st22 {fill:#4f87bb;font-size:1em;font-weight:normal}
		.st23 {fill:#ffffff;stroke:none;stroke-linecap:butt}
		.st24 {font-size:1em;font-weight:bold}
		.st25 {fill:#7030a0;font-size:1em;font-weight:bold}
		.st26 {fill:#fbece7;fill-opacity:1;stroke:#fbece7;stroke-opacity:1;stroke-width:0.22935779816514}
		.st27 {marker-end:url(#mrkr12-369);stroke:#ed7d31;stroke-linecap:round;stroke-linejoin:round;stroke-width:1}
		.st28 {fill:#ed7d31;fill-opacity:1;stroke:#ed7d31;stroke-opacity:1;stroke-width:0.28409090909091}
		.st29 {fill:#d06d29;font-family:Calibri;font-size:0.666664em;font-style:italic}
		.st30 {fill:none;fill-rule:evenodd;font-size:12px;overflow:visible;stroke-linecap:square;stroke-miterlimit:3}
	]]>
	</style>

	<defs id="Patterns_And_Gradients">
		<linearGradient id="grad0-5" x1="0" y1="0" x2="1" y2="0" gradientTransform="rotate(60 0.5 0.5)">
			<stop offset="0" stop-color="#e9eff7" stop-opacity="1"/>
			<stop offset="0.24" stop-color="#f4f7fb" stop-opacity="1"/>
			<stop offset="0.54" stop-color="#feffff" stop-opacity="1"/>
		</linearGradient>
		<linearGradient id="grad0-60" x1="0" y1="0" x2="1" y2="0" gradientTransform="rotate(60 0.5 0.5)">
			<stop offset="0" stop-color="#fbece7" stop-opacity="1"/>
			<stop offset="0.24" stop-color="#fdf5f3" stop-opacity="1"/>
			<stop offset="0.54" stop-color="#feffff" stop-opacity="1"/>
		</linearGradient>
	</defs>
	<defs id="Markers">
		<g id="lend12">
			<path d="M 3 1 L 0 0 L 3 -1 " style="stroke-linecap:round;stroke-linejoin:round;fill:none"/>
		</g>
		<marker id="mrkr12-109" class="st11" orient="auto" markerUnits="strokeWidth" overflow="visible">
			<use xlink:href="#lend12" transform="scale(-3.52,-3.52) "/>
		</marker>
		<marker id="mrkr12-144" class="st15" orient="auto" markerUnits="strokeWidth" overflow="visible">
			<use xlink:href="#lend12" transform="scale(-4.36,-4.36) "/>
		</marker>
		<marker id="mrkr12-360" class="st26" orient="auto" markerUnits="strokeWidth" overflow="visible">
			<use xlink:href="#lend12" transform="scale(-4.36,-4.36) "/>
		</marker>
		<marker id="mrkr12-369" class="st28" orient="auto" markerUnits="strokeWidth" overflow="visible">
			<use xlink:href="#lend12" transform="scale(-3.52,-3.52) "/>
		</marker>
	</defs>
	<defs id="Filters">
		<filter id="filter_2">
			<feGaussianBlur stdDeviation="2"/>
		</filter>
	</defs>
	<g>
		<title>Page-1</title>
		<g id="group1-1" transform="translate(17.7579,648.014) scale(1,-1)">
			<title>State, Act.Region.154</title>
			<g id="shape2-2" transform="translate(0,-372.276)">
				<title>Sheet.2</title>
			</g>
			<g id="shape3-6" transform="translate(0,-372.276)">
				<title>Sheet.3</title>
			</g>
			<g id="shape4-9">
				<title>Sheet.4</title>
				<path d="M-0 517.82 A18 18 -180 0 0 18 535.82 L742.62 535.82 A18 18 -180 0 0 760.62 517.82 L760.62 181.54 A18 18
							 -180 0 0 742.62 163.54 L18 163.54 A18 18 -180 0 0 -0 181.54 L0 517.82 Z" class="st1"/>
			</g>
		</g>
		<g id="group5-12" transform="translate(40.435,674.703) scale(1,-1)">
			<title>State, Act.Region.177</title>
			<g id="shape6-13" transform="translate(0,-318.898)">
				<title>Sheet.6</title>
			</g>
			<g id="shape7-16" transform="translate(0,-318.898)">
				<title>Sheet.7</title>
			</g>
			<g id="shape8-19">
				<title>Sheet.8</title>
				<path d="M-0 517.82 A18 18 -180 0 0 18 535.82 L571.61 535.82 A18 18 -180 0 0 589.61 517.82 L589.61 234.92 A18 18
							 -180 0 0 571.61 216.92 L18 216.92 A18 18 -180 0 0 -0 234.92 L0 517.82 Z" class="st1"/>
			</g>
		</g>
		<g id="group44-22" transform="translate(334.421,578.522) scale(1,-1)">
			<title>State, Act.Region.38</title>
			<g id="shape45-23" transform="translate(0,-36)">
				<title>Sheet.45</title>
			</g>
			<g id="shape46-26" transform="translate(0,-35.9448)">
				<title>Sheet.46</title>
				<path d="M8 535.82 L64 535.82 A9 9 -180 0 0 63 535.76 L9 535.76 A9 9 -180 0 0 8 535.82 Z" class="st2"/>
				<path d="M64 535.82 A9 9 -180 0 0 63 535.76 L9 535.76 A9 9 -180 0 0 8 535.82" class="st3"/>
			</g>
			<g id="shape47-30">
				<title>Sheet.47</title>
				<desc>ACTIVE</desc>
				<path d="M-0 526.82 A9 9 -180 0 0 9 535.82 L63 535.82 A9 9 -180 0 0 72 526.82 L72 508.82 A9 9 -180 0 0 64 499.87
							 L8 499.87 A9 9 -180 0 0 0 508.82 L0 526.82 Z" class="st1"/>
				<text x="24.1" y="-515.45" transform="scale(1,-1)" class="st4">ACTIVE</text>			</g>
		</g>
		<g id="group48-34" transform="translate(334.421,699.675) scale(1,-1)">
			<title>State, Act.Region.42</title>
			<g id="shape49-35" transform="translate(0,-36)">
				<title>Sheet.49</title>
			</g>
			<g id="shape50-38" transform="translate(0,-36)">
				<title>Sheet.50</title>
			</g>
			<g id="shape51-41">
				<title>Sheet.51</title>
				<desc>INACTIVE</desc>
				<path d="M-0 526.82 A9 9 -180 0 0 9 535.82 L63 535.82 A9 9 -180 0 0 72 526.82 L72 508.82 A9 9 -180 0 0 63 499.82
							 L9 499.82 A9 9 -180 0 0 -0 508.82 L0 526.82 Z" class="st1"/>
				<text x="20.39" y="-515.42" transform="scale(1,-1)" class="st4">INACTIVE</text>			</g>
		</g>
		<g id="group52-45" transform="translate(334.421,782.191) scale(1,-1)">
			<title>State, Act.Region.46</title>
			<g id="shape53-46" transform="translate(0,-36)">
				<title>Sheet.53</title>
			</g>
			<g id="shape54-49" transform="translate(0,-36)">
				<title>Sheet.54</title>
			</g>
			<g id="shape55-52">
				<title>Sheet.55</title>
				<desc>PRE_IDLE</desc>
				<path d="M-0 526.82 A9 9 -180 0 0 9 535.82 L63 535.82 A9 9 -180 0 0 72 526.82 L72 508.82 A9 9 -180 0 0 63 499.82
							 L9 499.82 A9 9 -180 0 0 -0 508.82 L0 526.82 Z" class="st1"/>
				<text x="20.45" y="-515.42" transform="scale(1,-1)" class="st4">PRE_IDLE</text>			</g>
		</g>
		<g id="group56-56" transform="translate(334.421,850.535) scale(1,-1)">
			<title>State, Act.Region.58</title>
			<g id="shape57-57" transform="translate(0,-36)">
				<title>Sheet.57</title>
			</g>
			<g id="shape58-61" transform="translate(0,-36)">
				<title>Sheet.58</title>
			</g>
			<g id="shape59-64">
				<title>Sheet.59</title>
				<desc>IDLE</desc>
				<path d="M-0 526.82 A9 9 -180 0 0 9 535.82 L63 535.82 A9 9 -180 0 0 72 526.82 L72 508.82 A9 9 -180 0 0 63 499.82
							 L9 499.82 A9 9 -180 0 0 -0 508.82 L0 526.82 Z" class="st5"/>
				<text x="28.77" y="-515.42" transform="scale(1,-1)" class="st6">IDLE</text>			</g>
		</g>
		<g id="group60-68" transform="translate(55.7705,850.535) scale(1,-1)">
			<title>State, Act.Region.66</title>
			<g id="shape61-69" transform="translate(0,-36)">
				<title>Sheet.61</title>
			</g>
			<g id="shape62-72" transform="translate(0,-36)">
				<title>Sheet.62</title>
			</g>
			<g id="shape63-75">
				<title>Sheet.63</title>
				<desc>WAITING_FOR_NETWORK</desc>
				<path d="M-0 526.82 A9 9 -180 0 0 9 535.82 L93.3 535.82 A9 9 -180 0 0 102.3 526.82 L102.3 508.82 A9 9 -180 0 0 93.3
							 499.82 L9 499.82 A9 9 -180 0 0 -0 508.82 L0 526.82 Z" class="st1"/>
				<text x="7.69" y="-515.42" transform="scale(1,-1)" class="st4">WAITING_FOR_NETWORK</text>			</g>
		</g>
		<g id="group64-79" transform="translate(319.269,935.574) scale(1,-1)">
			<title>State, Act.Region.71</title>
			<g id="shape65-80" transform="translate(0,-36)">
				<title>Sheet.65</title>
			</g>
			<g id="shape66-83" transform="translate(0,-36)">
				<title>Sheet.66</title>
			</g>
			<g id="shape67-86">
				<title>Sheet.67</title>
				<desc>IDLE_MAINTENANCE</desc>
				<path d="M-0 526.82 A9 9 -180 0 0 9 535.82 L93.3 535.82 A9 9 -180 0 0 102.3 526.82 L102.3 508.82 A9 9 -180 0 0 93.3
							 499.82 L9 499.82 A9 9 -180 0 0 -0 508.82 L0 526.82 Z" class="st1"/>
				<text x="16.61" y="-515.42" transform="scale(1,-1)" class="st4">IDLE_MAINTENANCE</text>			</g>
		</g>
		<g id="group68-90" transform="translate(655.161,851.585) scale(1,-1)">
			<title>State, Act.Region.75</title>
			<g id="shape69-91" transform="translate(0,-36)">
				<title>Sheet.69</title>
			</g>
			<g id="shape70-93" transform="translate(0,-36)">
				<title>Sheet.70</title>
			</g>
			<g id="shape71-95">
				<title>Sheet.71</title>
				<desc>OVERRIDE</desc>
				<path d="M-0 526.82 A9 9 -180 0 0 9 535.82 L93.3 535.82 A9 9 -180 0 0 102.3 526.82 L102.3 508.82 A9 9 -180 0 0 93.3
							 499.82 L9 499.82 A9 9 -180 0 0 -0 508.82 L0 526.82 Z" class="st7"/>
				<text x="34.09" y="-515.42" transform="scale(1,-1)" class="st8">OVERRIDE</text>			</g>
		</g>
		<g id="group72-98" transform="translate(362.994,-512.25)">
			<title>Pseudo- state</title>
			<g id="shape73-99">
				<title>Sheet.73</title>
				<g id="shadow73-100" transform="matrix(1,0,0,1,0.345598,1.97279)" class="st9"/>
			</g>
			<g id="shape74-104" transform="translate(389.759,903.824) rotate(135)">
				<title>Sheet.74</title>
				<path d="M7.09 532.15 L23.66 517.04" class="st10"/>
			</g>
			<g id="shape75-110" transform="translate(3.2632,-3.2632)">
				<title>Sheet.75</title>
				<desc>H</desc>
				<g id="shadow75-111" transform="matrix(1,0,0,1,0.345598,1.97279)" class="st9">
					<path d="M0 530.38 A5.43866 5.43866 0 1 1 10.88 530.38 A5.43866 5.43866 0 0 1 0 530.38 Z" class="st12"/>
				</g>
				<path d="M0 530.38 A5.43866 5.43866 0 1 1 10.88 530.38 A5.43866 5.43866 0 0 1 0 530.38 Z" class="st13"/>
			</g>
		</g>
		<g id="group80-115" transform="translate(0.75,-17.8018)">
			<title>Diagram, Frame</title>
			<g id="shape81-116">
				<title>Sheet.81</title>
				<rect x="0" y="18.5518" width="817.403" height="517.268" class="st14"/>
				<rect x="0" y="18.5518" width="817.403" height="517.268" class="st3"/>
			</g>
			<g id="shape82-120">
				<title>Sheet.82</title>
				<desc>[guard]</desc>
			</g>
			<g id="shape83-122">
				<title>Sheet.83</title>
				<desc>[guard]</desc>
			</g>
			<g id="shape84-124">
				<title>Sheet.84</title>
				<desc>[guard]</desc>
			</g>
			<g id="shape85-126">
				<title>Sheet.85</title>
				<desc>[guard]</desc>
			</g>
			<g id="shape86-128">
				<title>Sheet.86</title>
				<desc>[guard]</desc>
			</g>
			<g id="shape87-130">
				<title>Sheet.87</title>
				<desc>[guard]</desc>
			</g>
			<g id="shape88-132">
				<title>Sheet.88</title>
				<desc>[guard]</desc>
			</g>
			<g id="shape89-134">
				<title>Sheet.89</title>
				<desc>[guard]</desc>
			</g>
			<g id="shape90-136" transform="translate(0,-499.268)">
				<title>Sheet.90</title>
				<desc>Light Doze</desc>
				<path d="M0 535.82 L48.22 535.82 L57.22 526.82 L57.22 517.82 L0 517.82 L0 535.82 Z" class="st1"/>
				<text x="11.33" y="529.22" class="st4">Light Doze</text>			</g>
		</g>
		<g id="group105-140" transform="translate(363.334,-457.117)">
			<title>Transition, Edge.118</title>
			<desc>screen off &#38;&#38; charger unplugged</desc>
			<g id="shape106-141" transform="translate(535.418,620.972) rotate(90)">
				<title>Straight Edge.28</title>
				<desc>N</desc>
			</g>
			<g id="shape107-145" transform="translate(535.418,520.843) rotate(90)">
				<title>Straight Edge.29</title>
				<desc>N</desc>
			</g>
			<g id="shape105-148">
				<path d="M7.09 535.82 L7.09 620.97" class="st10"/>
				<rect x="-61.5454" y="545.002" width="62.1362" height="19.1997" class="st16"/>
				<text x="-43.87" y="552.2" class="st17">screen off &#38;&#38; <tspan x="-61.55" dy="1.2em" class="st18">charger unplugged</tspan></text>			</g>
		</g>
		<g id="group108-156" transform="translate(542.069,-423.625)">
			<title>Transition, Edge.121</title>
			<desc>screen on || charger plugged || next FLAG_WAKE_FROM_IDLE alar...</desc>
			<g id="shape109-157" transform="translate(-304.917,984.809) rotate(-161.314)">
				<title>Straight Edge.28</title>
				<desc>N</desc>
			</g>
			<g id="shape110-160" transform="translate(-528.331,550.796) rotate(-90)">
				<title>Straight Edge.29</title>
				<desc>N</desc>
			</g>
			<g id="shape108-163">
				<path d="M0 535.82 L0 502.33 A18 18 -180 0 0 -18 484.33 L-135.65 484.33" class="st10"/>
				<text x="82.11" y="506.41" class="st17">screen on <tspan class="st19">|| </tspan><tspan x="60.07" dy="1.2em"
							class="st18">charger plugged </tspan><tspan class="st19">|| </tspan><tspan x="-74.89" dy="1.2em"
							class="st18">next </tspan>FLAG_WAKE_FROM_IDLE alarm  &#60;  <tspan class="st20">min</tspan><tspan
							class="st20">_</tspan><tspan class="st20">time</tspan><tspan class="st20">_</tspan><tspan class="st20">to</tspan><tspan
							class="st20">_</tspan><tspan class="st20">alarm</tspan></text>			</g>
		</g>
		<g id="group114-180" transform="translate(363.334,-335.964)">
			<title>Transition, Edge.128</title>
			<desc>light_after_inactive_to timeout &#38;&#38; some ops pending</desc>
			<g id="shape115-181" transform="translate(535.418,582.336) rotate(90)">
				<title>Straight Edge.28</title>
				<desc>N</desc>
			</g>
			<g id="shape116-184" transform="translate(535.418,520.843) rotate(90)">
				<title>Straight Edge.29</title>
				<desc>N</desc>
			</g>
			<g id="shape114-187">
				<path d="M7.09 535.82 L7.09 582.34" class="st10"/>
				<rect x="-113.825" y="544.322" width="116.578" height="19.1997" class="st16"/>
				<text x="-113.83" y="551.52" class="st21">light_after_inactive_to<tspan class="st22"> </tspan><tspan class="st22">timeout </tspan><tspan
							class="st22">&#38;&#38;</tspan><tspan x="-57.59" dy="1.2em" class="st22"> </tspan><tspan class="st22">some ops pending</tspan></text>			</g>
		</g>
		<g id="group117-199" transform="translate(421.572,-118.065)">
			<title>Transition, Edge.117</title>
			<desc>max( min_light_maintenance_time, between( light_idle_maintena...</desc>
			<g id="shape118-200" transform="translate(-15.1512,979.111) rotate(180)">
				<title>Straight Edge.28</title>
				<desc>N</desc>
			</g>
			<g id="shape119-203" transform="translate(-14.9763,7.48817)">
				<title>Straight Edge.29</title>
				<desc>N</desc>
			</g>
			<g id="shape117-206">
				<path d="M0 535.82 L105.04 535.82 A18 18 -180 0 0 123.04 517.82 L123.04 468.78 A18 18 -180 0 0 105.04 450.78 L-15.15
							 450.78" class="st10"/>
				<rect x="15.8179" y="481.78" width="160.344" height="28.7996" class="st23"/>
				<text x="57.79" y="488.98" class="st17">max( <tspan class="st20">min</tspan><tspan class="st20">_</tspan><tspan
							class="st20">light</tspan><tspan class="st20">_</tspan><tspan class="st20">maintenance</tspan><tspan
							class="st20">_</tspan><tspan class="st20">time</tspan>, <tspan x="18.99" dy="1.2em" class="st18">between</tspan>( <tspan
							class="st20">light</tspan><tspan class="st20">_</tspan><tspan class="st20">idle</tspan><tspan
							class="st20">_</tspan><tspan class="st20">maintenance</tspan><tspan class="st20">_</tspan><tspan
							class="st20">min</tspan><tspan class="st20">_</tspan><tspan class="st20">budget</tspan><tspan
							class="st24">, </tspan><tspan x="15.82" dy="1.2em" class="st20">light</tspan><tspan class="st20">_</tspan><tspan
							class="st20">idle</tspan><tspan class="st20">_</tspan><tspan class="st20">maintenance</tspan><tspan
							class="st20">_</tspan><tspan class="st20">max</tspan><tspan class="st20">_</tspan><tspan class="st20">budget</tspan> ) ) timeout</text>			</g>
		</g>
		<g id="group120-240" transform="translate(399.334,-362.964)">
			<title>Transition, Edge.120</title>
			<desc>light_after_inactive_to timeout &#38;&#38; no op pending</desc>
			<g id="shape121-241" transform="translate(7.08661,1215.01) rotate(180)">
				<title>Straight Edge.28</title>
				<desc>N</desc>
			</g>
			<g id="shape122-244" transform="translate(-7.88973,7.48817)">
				<title>Straight Edge.29</title>
				<desc>N</desc>
			</g>
			<g id="shape120-247">
				<path d="M7.09 535.82 L129.57 535.82 A18 18 0 0 1 147.57 553.82 L147.57 668.68 A18 18 0 0 1 129.57 686.68 L7.09 686.68"
						class="st10"/>
				<rect x="27.3402" y="590.314" width="116.578" height="19.1997" class="st16"/>
				<text x="27.34" y="597.51" class="st21">light_after_inactive_to<tspan class="st22"> </tspan><tspan class="st22">timeout </tspan><tspan
							class="st22">&#38;&#38;</tspan><tspan x="97.64" dy="1.2em" class="st22">no op pending</tspan></text>			</g>
		</g>
		<g id="group123-258" transform="translate(363.334,-253.447)">
			<title>Transition, Edge.123</title>
			<desc>light_pre_idle_to timeout</desc>
			<g id="shape124-259" transform="translate(535.418,568.163) rotate(90)">
				<title>Straight Edge.28</title>
				<desc>N</desc>
			</g>
			<g id="shape125-262" transform="translate(535.418,520.843) rotate(90)">
				<title>Straight Edge.29</title>
				<desc>N</desc>
			</g>
			<g id="shape123-265">
				<path d="M7.09 535.82 L7.09 568.16" class="st10"/>
				<rect x="-84.5248" y="540.306" width="84.5118" height="9.59985" class="st16"/>
				<text x="-84.52" y="547.51" class="st21">light_pre_idle_to<tspan class="st22"> </tspan><tspan class="st22">timeout</tspan></text>			</g>
		</g>
		<g id="group126-274" transform="translate(363.334,-185.104)">
			<title>Transition, Edge.126</title>
			<desc>min( light_idle_to *= light_idle_factor, light_max_idle_to ) ...</desc>
			<g id="shape127-275" transform="translate(535.418,584.859) rotate(90)">
				<title>Straight Edge.28</title>
				<desc>N</desc>
			</g>
			<g id="shape128-278" transform="translate(535.418,520.843) rotate(90)">
				<title>Straight Edge.29</title>
				<desc>N</desc>
			</g>
			<g id="shape126-281">
				<path d="M7.09 535.82 L7.09 584.86" class="st10"/>
				<rect x="-126.289" y="542.583" width="127.333" height="28.7996" class="st16"/>
				<text x="-126.29" y="549.78" class="st17">min( <tspan class="st25">light</tspan><tspan class="st25">_</tspan><tspan
							class="st25">idle</tspan><tspan class="st25">_</tspan><tspan class="st25">to</tspan> *= <tspan
							class="st25">light</tspan><tspan class="st25">_</tspan><tspan class="st25">idle</tspan><tspan
							class="st25">_</tspan><tspan class="st25">factor</tspan>,<tspan x="-120.06" dy="1.2em" class="st18">         </tspan><tspan
							class="st25">light</tspan><tspan class="st25">_</tspan><tspan class="st25">max</tspan><tspan
							class="st25">_</tspan><tspan class="st25">idle</tspan><tspan class="st25">_</tspan><tspan class="st25">to</tspan> ) timeout <tspan
							class="st19">&#38;&#38; </tspan><tspan x="-56.93" dy="1.2em" class="st18">network available</tspan></text>			</g>
		</g>
		<g id="group129-308" transform="translate(124.922,-185.104)">
			<title>Transition, Edge.129</title>
			<desc>network available</desc>
			<g id="shape130-309" transform="translate(327.139,82.4878) rotate(14.5569)">
				<title>Straight Edge.28</title>
				<desc>N</desc>
			</g>
			<g id="shape131-312" transform="translate(528.331,520.843) rotate(90)">
				<title>Straight Edge.29</title>
				<desc>N</desc>
			</g>
			<g id="shape129-315">
				<path d="M0 535.82 L0 575.86 A18 18 -180 0 0 18 593.86 L194.35 593.86" class="st10"/>
				<rect x="63.2842" y="582.582" width="57.9718" height="9.59985" class="st16"/>
				<text x="63.28" y="589.78" class="st17">network available</text>			</g>
		</g>
		<g id="group132-322" transform="translate(334.421,-196.017)">
			<title>Transition, Edge.132</title>
			<desc>min( light_idle_to *= light_idle_factor, light_max_idle_to ) ...</desc>
			<g id="shape133-323" transform="translate(-176.348,1057.06) rotate(180)">
				<title>Straight Edge.28</title>
				<desc>N</desc>
			</g>
			<g id="shape134-326" transform="translate(14.9763,1057.06) rotate(180)">
				<title>Straight Edge.29</title>
				<desc>N</desc>
			</g>
			<g id="shape132-329">
				<path d="M0 528.73 L-176.35 528.73" class="st10"/>
				<rect x="-154.069" y="498.788" width="127.333" height="28.7996" class="st16"/>
				<text x="-154.07" y="505.99" class="st17">min( <tspan class="st25">light</tspan><tspan class="st25">_</tspan><tspan
							class="st25">idle</tspan><tspan class="st25">_</tspan><tspan class="st25">to</tspan> *= <tspan
							class="st25">light</tspan><tspan class="st25">_</tspan><tspan class="st25">idle</tspan><tspan
							class="st25">_</tspan><tspan class="st25">factor</tspan>,<tspan x="-147.84" dy="1.2em" class="st18">         </tspan><tspan
							class="st25">light</tspan><tspan class="st25">_</tspan><tspan class="st25">max</tspan><tspan
							class="st25">_</tspan><tspan class="st25">idle</tspan><tspan class="st25">_</tspan><tspan class="st25">to</tspan> ) timeout <tspan
							class="st19">&#38;&#38; </tspan><tspan x="-97.41" dy="1.2em" class="st18">network not available</tspan></text>			</g>
		</g>
		<g id="group150-356" transform="translate(630.041,-165.487)">
			<title>Transition, Edge.184</title>
			<desc>override_light_doze</desc>
			<g id="shape151-357" transform="translate(-209.639,72.9669) rotate(-32.7624)">
				<title>Straight Edge.28</title>
				<desc>N</desc>
			</g>
			<g id="shape152-361" transform="translate(-14.9763,7.48817)">
				<title>Straight Edge.29</title>
				<desc>N</desc>
			</g>
			<g id="shape150-364">
				<path d="M0 535.82 L66.99 535.82 A9.28346 9.28346 -180 0 0 76.27 526.54 L76.27 517.25" class="st27"/>
				<rect x="24.4473" y="544.472" width="64.4914" height="9.59985" class="st16"/>
				<text x="24.45" y="551.67" class="st29">override_light_doze</text>			</g>
		</g>
		<g id="group159-372" transform="translate(742.312,-220.054)">
			<title>Transition, Edge.193</title>
			<desc>motion detected</desc>
			<g id="shape160-373" transform="translate(-652.136,691.384) rotate(-143.395)">
				<title>Straight Edge.28</title>
				<desc>N</desc>
			</g>
			<g id="shape161-376" transform="translate(-528.331,550.796) rotate(-90)">
				<title>Straight Edge.29</title>
				<desc>N</desc>
			</g>
			<g id="shape159-379">
				<path d="M0 535.82 L0 285.26 A18 18 -180 0 0 -18 267.26 L-337.1 267.26" class="st10"/>
				<rect x="-112.017" y="256.046" width="53.3504" height="9.59985" class="st16"/>
				<text x="-112.02" y="263.25" class="st17">motion detected</text>			</g>
		</g>
	</g>
</svg>
